<mxfile host="app.diagrams.net" modified="2023-12-03T19:39:44.204Z" agent="Mozilla/5.0 (Windows NT 10.0; Win64; x64) AppleWebKit/537.36 (KHTML, like Gecko) Chrome/119.0.0.0 Safari/537.36" etag="qeMRA8qVcAGZfHWALzv1" version="22.1.5" type="github">
  <diagram name="Page-1" id="19d8dcba-68ad-dc05-1034-9cf7b2a963f6">
    <mxGraphModel dx="1163" dy="645" grid="1" gridSize="10" guides="1" tooltips="1" connect="1" arrows="1" fold="1" page="1" pageScale="1" pageWidth="1100" pageHeight="850" background="none" math="0" shadow="0">
      <root>
        <mxCell id="0" />
        <mxCell id="1" parent="0" />
        <mxCell id="218ae93e1282097f-43" value="" style="edgeStyle=orthogonalEdgeStyle;rounded=1;html=1;labelBackgroundColor=none;endArrow=block;endFill=1;strokeColor=#4D4D4D;strokeWidth=2;fontFamily=Verdana;fontSize=12;fontStyle=1" parent="1" source="6257edae8c83ed4a-1" target="6257edae8c83ed4a-9" edge="1">
          <mxGeometry relative="1" as="geometry" />
        </mxCell>
        <mxCell id="218ae93e1282097f-44" value="" style="edgeStyle=orthogonalEdgeStyle;rounded=1;html=1;labelBackgroundColor=none;endArrow=block;endFill=1;strokeColor=#4D4D4D;strokeWidth=2;fontFamily=Verdana;fontSize=12;fontStyle=1" parent="1" source="6257edae8c83ed4a-1" target="218ae93e1282097f-2" edge="1">
          <mxGeometry relative="1" as="geometry" />
        </mxCell>
        <mxCell id="218ae93e1282097f-45" value="" style="edgeStyle=elbowEdgeStyle;html=1;labelBackgroundColor=none;endArrow=block;endFill=1;strokeColor=#4D4D4D;strokeWidth=2;fontFamily=Verdana;fontSize=12;fontStyle=1;rounded=0;" parent="1" source="6257edae8c83ed4a-1" edge="1">
          <mxGeometry relative="1" as="geometry">
            <mxPoint x="899.0500000000002" y="220" as="sourcePoint" />
            <mxPoint x="726" y="362.13" as="targetPoint" />
            <Array as="points">
              <mxPoint x="860" y="360" />
            </Array>
          </mxGeometry>
        </mxCell>
        <mxCell id="218ae93e1282097f-48" value="" style="edgeStyle=orthogonalEdgeStyle;rounded=0;html=1;labelBackgroundColor=none;endArrow=block;endFill=1;strokeColor=#4D4D4D;strokeWidth=2;fontFamily=Verdana;fontSize=12;fontStyle=1;exitX=0.913;exitY=1.007;exitDx=0;exitDy=0;exitPerimeter=0;entryX=-0.007;entryY=0.603;entryDx=0;entryDy=0;entryPerimeter=0;" parent="1" target="6257edae8c83ed4a-24" edge="1">
          <mxGeometry relative="1" as="geometry">
            <mxPoint x="1115" y="209" as="sourcePoint" />
            <mxPoint x="1208" y="361" as="targetPoint" />
            <Array as="points">
              <mxPoint x="1114" y="209" />
              <mxPoint x="1114" y="211" />
              <mxPoint x="1115" y="211" />
              <mxPoint x="1115" y="360" />
              <mxPoint x="1200" y="360" />
            </Array>
          </mxGeometry>
        </mxCell>
        <mxCell id="6257edae8c83ed4a-9" value="&amp;nbsp; &amp;nbsp;Marquez, Mary Jane&lt;div&gt;&lt;span style=&quot;font-weight: normal;&quot;&gt;&amp;nbsp; Operations Manager&lt;/span&gt;&lt;br&gt;&lt;/div&gt;" style="whiteSpace=wrap;html=1;rounded=1;shadow=0;comic=0;strokeWidth=2;fontFamily=Verdana;align=center;fontSize=12;fontStyle=1" parent="1" vertex="1">
          <mxGeometry x="500" y="210" width="226" height="50" as="geometry" />
        </mxCell>
        <mxCell id="6257edae8c83ed4a-21" value="Ompoc, Jeralou&lt;div&gt;&lt;span style=&quot;font-weight: normal;&quot;&gt;Production Team&lt;/span&gt;&lt;br&gt;&lt;/div&gt;" style="whiteSpace=wrap;html=1;rounded=1;shadow=0;comic=0;strokeWidth=2;fontFamily=Verdana;align=center;fontSize=12;fontStyle=1" parent="1" vertex="1">
          <mxGeometry x="526" y="330" width="200" height="50" as="geometry" />
        </mxCell>
        <mxCell id="6257edae8c83ed4a-12" value="&lt;div&gt;&lt;span&gt;&lt;div&gt;&amp;nbsp; &amp;nbsp; &amp;nbsp;San Andres, Aslie Joy&amp;nbsp;&lt;/div&gt;&lt;div&gt;&lt;span style=&quot;background-color: initial; font-weight: normal;&quot;&gt;&amp;nbsp; &amp;nbsp; &amp;nbsp;Marketing and Sales Team&lt;/span&gt;&lt;br&gt;&lt;/div&gt;&lt;/span&gt;&lt;/div&gt;" style="whiteSpace=wrap;html=1;rounded=1;shadow=0;comic=0;strokeWidth=2;fontFamily=Verdana;align=center;fontSize=12;fontStyle=1" parent="1" vertex="1">
          <mxGeometry x="863" y="410" width="247" height="70" as="geometry" />
        </mxCell>
        <mxCell id="6257edae8c83ed4a-1" value="&lt;span&gt;&lt;div&gt;&amp;nbsp; &amp;nbsp;&amp;nbsp;&lt;span style=&quot;background-color: initial;&quot;&gt;Nebrida, Dominique Klaire J.&amp;nbsp;&lt;/span&gt;&lt;/div&gt;&lt;div&gt;&lt;span style=&quot;background-color: initial; font-weight: normal;&quot;&gt;CEO&lt;/span&gt;&lt;br&gt;&lt;/div&gt;&lt;/span&gt;" style="whiteSpace=wrap;html=1;rounded=1;shadow=0;comic=0;strokeWidth=2;fontFamily=Verdana;align=center;fontSize=12;fontStyle=1;" parent="1" vertex="1">
          <mxGeometry x="852.5" y="140" width="270" height="70" as="geometry" />
        </mxCell>
        <mxCell id="218ae93e1282097f-2" value="&amp;nbsp; &amp;nbsp; Turaray, Marielle Alvarez&lt;div&gt;&lt;span style=&quot;font-weight: normal;&quot;&gt;Design and Development Team&lt;/span&gt;&lt;br&gt;&lt;/div&gt;" style="whiteSpace=wrap;html=1;rounded=1;shadow=0;comic=0;strokeWidth=2;fontFamily=Verdana;align=center;fontSize=12;fontStyle=1" parent="1" vertex="1">
          <mxGeometry x="1230" y="210" width="280" height="50" as="geometry" />
        </mxCell>
        <mxCell id="6257edae8c83ed4a-24" value="&amp;nbsp; &amp;nbsp;Baluyot, Jayem&lt;div&gt;&lt;span style=&quot;font-weight: normal;&quot;&gt;&amp;nbsp; &amp;nbsp; Finance and Administration&lt;/span&gt;&lt;br&gt;&lt;/div&gt;" style="whiteSpace=wrap;html=1;rounded=1;shadow=0;comic=0;strokeWidth=2;fontFamily=Verdana;align=center;fontSize=12;fontStyle=1" parent="1" vertex="1">
          <mxGeometry x="1210" y="330" width="260" height="50" as="geometry" />
        </mxCell>
        <mxCell id="kf-VhTHYQu0tfOnTLpxz-5" value="" style="sketch=0;outlineConnect=0;fontColor=#232F3E;gradientColor=none;fillColor=#232F3D;strokeColor=none;dashed=0;verticalLabelPosition=bottom;verticalAlign=top;align=center;html=1;fontSize=12;fontStyle=0;aspect=fixed;pointerEvents=1;shape=mxgraph.aws4.gear;" vertex="1" parent="1">
          <mxGeometry x="514" y="223" width="24" height="24" as="geometry" />
        </mxCell>
        <mxCell id="kf-VhTHYQu0tfOnTLpxz-6" value="" style="shape=actor;whiteSpace=wrap;html=1;rounded=0;shadow=0;comic=0;strokeWidth=1;fillColor=#CCCCCC;fontFamily=Verdana;align=center;strokeColor=none;fontSize=12;fontStyle=1" vertex="1" parent="1">
          <mxGeometry x="863" y="160" width="24" height="30" as="geometry" />
        </mxCell>
        <mxCell id="kf-VhTHYQu0tfOnTLpxz-8" value="" style="sketch=0;pointerEvents=1;shadow=0;dashed=0;html=1;strokeColor=none;fillColor=#505050;labelPosition=center;verticalLabelPosition=bottom;verticalAlign=top;outlineConnect=0;align=center;shape=mxgraph.office.concepts.writing_pencil;" vertex="1" parent="1">
          <mxGeometry x="1247" y="220" width="24" height="30" as="geometry" />
        </mxCell>
        <mxCell id="kf-VhTHYQu0tfOnTLpxz-9" value="" style="verticalLabelPosition=bottom;shadow=0;dashed=0;align=center;html=1;verticalAlign=top;strokeWidth=1;shape=mxgraph.mockup.misc.shoppingCart;strokeColor=#999999;" vertex="1" parent="1">
          <mxGeometry x="538" y="340" width="24" height="30" as="geometry" />
        </mxCell>
        <mxCell id="kf-VhTHYQu0tfOnTLpxz-12" value="" style="sketch=0;pointerEvents=1;shadow=0;dashed=0;html=1;strokeColor=none;fillColor=#505050;labelPosition=center;verticalLabelPosition=bottom;verticalAlign=top;outlineConnect=0;align=center;shape=mxgraph.office.concepts.marketplace_shopping_bag;" vertex="1" parent="1">
          <mxGeometry x="880" y="425" width="24" height="40" as="geometry" />
        </mxCell>
        <mxCell id="kf-VhTHYQu0tfOnTLpxz-13" value="" style="shape=image;html=1;verticalAlign=top;verticalLabelPosition=bottom;labelBackgroundColor=#ffffff;imageAspect=0;aspect=fixed;image=https://cdn4.iconfinder.com/data/icons/48-bubbles/48/07.Wallet-128.png" vertex="1" parent="1">
          <mxGeometry x="1220" y="335" width="40" height="40" as="geometry" />
        </mxCell>
        <mxCell id="kf-VhTHYQu0tfOnTLpxz-15" value="" style="edgeStyle=elbowEdgeStyle;rounded=1;html=1;labelBackgroundColor=none;endArrow=block;endFill=1;strokeColor=#4D4D4D;strokeWidth=2;fontFamily=Verdana;fontSize=10;" edge="1" parent="1">
          <mxGeometry relative="1" as="geometry">
            <mxPoint x="983" y="212" as="sourcePoint" />
            <mxPoint x="982" y="408" as="targetPoint" />
          </mxGeometry>
        </mxCell>
      </root>
    </mxGraphModel>
  </diagram>
</mxfile>
